<?xml version="1.0" encoding="UTF-8" standalone="no"?>
<svg
   width="375"
   height="657"
   version="1.1"
   id="svg41"
   sodipodi:docname="bg-hero-mobile.svg"
   inkscape:version="1.2.1 (9c6d41e410, 2022-07-14)"
   xmlns:inkscape="http://www.inkscape.org/namespaces/inkscape"
   xmlns:sodipodi="http://sodipodi.sourceforge.net/DTD/sodipodi-0.dtd"
   xmlns="http://www.w3.org/2000/svg"
   xmlns:svg="http://www.w3.org/2000/svg">
  <sodipodi:namedview
     id="namedview43"
     pagecolor="#ffffff"
     bordercolor="#666666"
     borderopacity="1.0"
     inkscape:showpageshadow="2"
     inkscape:pageopacity="0.0"
     inkscape:pagecheckerboard="0"
     inkscape:deskcolor="#d1d1d1"
     showgrid="false"
     inkscape:zoom="1.2891933"
     inkscape:cx="134.58028"
     inkscape:cy="267.60921"
     inkscape:window-width="1920"
     inkscape:window-height="1027"
     inkscape:window-x="-8"
     inkscape:window-y="-8"
     inkscape:window-maximized="1"
     inkscape:current-layer="svg41" />
  <defs
     id="defs27">
    <linearGradient
       x1="32.296551"
       y1="-30.68985"
       x2="356.90628"
       y2="314.0495"
       id="a"
       gradientTransform="scale(0.83703047,1.1946996)"
       gradientUnits="userSpaceOnUse">
      <stop
         stop-color="#FFF"
         stop-opacity="0"
         offset="0%"
         id="stop2" />
      <stop
         stop-color="#C9F0FF"
         offset="1"
         id="stop4"
         style="stop-color:#98deff;stop-opacity:1;" />
    </linearGradient>
    <linearGradient
       x1="336.1936"
       y1="-61.754139"
       x2="368.14563"
       y2="346.08072"
       id="b"
       gradientTransform="scale(0.63118601,1.584319)"
       gradientUnits="userSpaceOnUse"
       spreadMethod="pad">
      <stop
         stop-color="#FFF"
         stop-opacity="0"
         offset="0.08624707"
         id="stop7" />
      <stop
         stop-color="#C9F0FF"
         offset="0.95571095"
         id="stop9"
         style="stop-color:#9ae2ff;stop-opacity:1;" />
    </linearGradient>
    <linearGradient
       x1="137.029%"
       y1="129.104%"
       x2="50%"
       y2="50%"
       id="c">
      <stop
         stop-color="#FFF"
         stop-opacity="0"
         offset="0%"
         id="stop12" />
      <stop
         stop-color="#C9F0FF"
         offset="100%"
         id="stop14" />
    </linearGradient>
    <linearGradient
       x1="-97.01%"
       y1="148.218%"
       x2="65.921%"
       y2="50%"
       id="d">
      <stop
         stop-color="#FFF"
         stop-opacity="0"
         offset="0"
         id="stop17"
         style="stop-color:#e1e1e1;stop-opacity:0;" />
      <stop
         stop-color="#C9F0FF"
         offset="1"
         id="stop19"
         style="stop-color:#98dfff;stop-opacity:1;" />
    </linearGradient>
    <linearGradient
       x1="-160.796%"
       y1="-224.453%"
       x2="107.047%"
       y2="70.702%"
       id="e">
      <stop
         stop-color="#FFF"
         stop-opacity="0"
         offset="0%"
         id="stop22" />
      <stop
         stop-color="#DEF5FE"
         offset="1"
         id="stop24"
         style="stop-color:#b4e4fe;stop-opacity:1;" />
    </linearGradient>
  </defs>
  <g
     transform="translate(-40 -3)"
     fill="none"
     fill-rule="evenodd"
     id="g39">
    <path
       d="M0 324c14.45-54.047 43.71-74.586 87.777-61.617 66.1 19.454 66.1 18.745 111.319-14.078 13.563-9.845 5.124-56.405-15.209-57.93-20.333-1.527-4.806-35.062 30.203-41.642 35.009-6.579-9.4-53.037-36.047-66.539-27.674-14.022 7.874-50.933 10.62-65.03C193.119-5.72 130.232-5.72 0 17.164V324z"
       fill="url(#a)"
       id="path29"
       style="fill:url(#a)" />
    <path
       d="M415 538c-26.188-.61-45.499-12.592-57.931-35.948-18.649-35.034-18.495-110.797-58.255-106.655-39.76 4.142-82.248-12.803-67.163-60.527 15.085-47.724 50.32-41.809 58.742-119.597 8.421-77.79-60.53 16.148-71.918-35.577-4.447-20.2 6.109-22.922-10.258-45.647-5.433-7.544-8.06-18.476-6.977-22.725C204.606 39.734 206.931 3.626 208.217 3c6.126-2.98 14.416-2 27.55-2 28.276 0 88.02.667 179.233 2v535z"
       fill="url(#b)"
       id="path31"
       style="fill-opacity:1;fill:url(#b)" />
    <rect
       fill="url(#c)"
       transform="rotate(45 83 649)"
       x="75"
       y="641"
       width="16"
       height="16"
       rx="1.263"
       id="rect33" />
    <path
       d="M97.025 458.05l8.337 16.673a2.264 2.264 0 0 1-2.025 3.277H86.663a2.264 2.264 0 0 1-2.025-3.277l8.337-16.673a2.264 2.264 0 0 1 4.05 0z"
       stroke="url(#d)"
       stroke-width="4.528"
       opacity=".543"
       transform="rotate(30 95 466)"
       id="path35"
       style="fill:none;fill-opacity:1" />
    <rect
       fill="url(#e)"
       transform="rotate(45 265.192 449.02)"
       x="258.692"
       y="442.521"
       width="13"
       height="13"
       rx="1"
       id="rect37" />
  </g>
</svg>
